<?xml version="1.0" standalone="no"?>
<!DOCTYPE svg PUBLIC "-//W3C//DTD SVG 20010904//EN"
 "http://www.w3.org/TR/2001/REC-SVG-20010904/DTD/svg10.dtd">
<svg version="1.0" xmlns="http://www.w3.org/2000/svg"
 width="202.000000pt" height="202.000000pt" viewBox="0 0 202.000000 202.000000"
 preserveAspectRatio="xMidYMid meet">
<metadata>
Created by potrace 1.11, written by Peter Selinger 2001-2013
</metadata>
<g transform="translate(0.000000,202.000000) scale(0.100000,-0.100000)"
fill="#000000" stroke="none">
<path d="M865 1490 l-130 -5 3 -65 c4 -86 12 -90 12 -6 l0 66 28 -5 c15 -2
110 -5 213 -5 l185 -1 1 -132 c1 -242 3 -290 10 -284 9 10 15 437 6 437 -57 4
-226 4 -328 0z"/>
<path d="M813 1443 c-9 -3 -13 -31 -13 -89 l0 -84 39 0 c38 0 61 14 46 28 -3
3 -10 1 -14 -7 -5 -7 -19 -11 -32 -9 -21 3 -24 8 -24 43 0 38 2 40 32 43 26 3
32 0 27 -12 -3 -9 -1 -16 5 -16 6 0 10 16 9 35 -1 33 -18 52 -18 20 0 -8 -4
-15 -10 -15 -5 0 -10 12 -10 26 0 21 3 24 21 19 15 -5 20 -3 17 6 -5 14 -51
21 -75 12z m27 -37 c0 -13 -6 -23 -14 -23 -12 0 -16 31 -7 55 4 12 21 -14 21
-32z"/>
<path d="M1075 1350 l0 -70 33 0 32 0 0 70 0 70 -32 0 -33 0 0 -70z m22 28
c-3 -7 -5 -2 -5 12 0 14 2 19 5 13 2 -7 2 -19 0 -25z m33 10 c0 -18 -2 -20 -9
-8 -6 8 -7 18 -5 22 9 14 14 9 14 -14z m0 -63 c0 -28 -4 -35 -20 -35 -16 0
-20 7 -20 35 0 28 4 35 20 35 16 0 20 -7 20 -35z"/>
<path d="M1476 1385 c-3 -9 -6 -35 -6 -58 0 -45 3 -41 -88 -107 -24 -17 -42
-34 -39 -36 3 -3 26 2 51 10 66 23 76 21 77 -14 1 -16 2 -36 3 -42 1 -7 -1
-15 -4 -18 -3 -3 -13 -14 -22 -26 -18 -20 -17 -20 32 -20 53 1 59 6 35 26 -20
17 -21 110 -1 110 7 0 33 -7 56 -15 24 -8 45 -13 47 -11 2 2 -18 21 -44 42
-26 21 -52 42 -57 46 -5 4 -10 31 -12 59 -2 54 -17 83 -28 54z"/>
<path d="M960 1299 l0 -70 32 3 c17 2 33 9 34 16 1 7 0 8 -3 2 -2 -5 -16 -10
-29 -10 -21 0 -24 5 -24 35 0 31 3 35 26 35 14 0 23 -4 19 -10 -3 -5 -2 -10 3
-10 5 0 9 18 10 40 2 39 1 40 -33 40 l-35 0 0 -71z m30 41 c0 -11 -4 -20 -10
-20 -5 0 -10 9 -10 20 0 11 5 20 10 20 6 0 10 -9 10 -20z m30 6 c0 -8 -4 -18
-10 -21 -5 -3 -10 3 -10 14 0 12 5 21 10 21 6 0 10 -6 10 -14z"/>
<path d="M315 1351 c-52 -22 -83 -93 -61 -145 19 -44 48 -67 93 -72 43 -5 78
10 104 46 67 92 -30 214 -136 171z"/>
<path d="M870 1320 c0 -5 5 -10 10 -10 6 0 10 5 10 10 0 6 -4 10 -10 10 -5 0
-10 -4 -10 -10z"/>
<path d="M602 1245 c-64 -15 -77 -25 -31 -25 19 0 41 -5 49 -10 12 -8 9 -10
-11 -10 -25 0 -88 -36 -113 -64 -6 -7 -29 -32 -51 -55 l-40 -43 45 30 c25 16
61 34 80 40 47 14 120 25 120 18 0 -3 -16 -26 -35 -52 -19 -25 -33 -50 -29
-55 11 -18 53 -8 84 21 18 17 38 30 44 30 20 0 40 -103 40 -203 0 -86 -12
-150 -45 -235 l-11 -27 -17 46 c-18 46 -79 141 -125 194 l-26 30 29 3 c44 5
106 -15 142 -45 27 -23 30 -24 21 -6 -16 30 -111 113 -131 114 -30 2 33 17 79
19 l45 1 -45 15 c-63 20 -113 18 -143 -6 -18 -14 -33 -18 -55 -14 -23 5 -39 0
-64 -17 -42 -30 -71 -59 -59 -59 6 0 12 4 15 9 3 5 15 11 26 14 19 5 18 3 -5
-24 -23 -28 -52 -106 -42 -116 3 -2 15 12 27 31 21 35 56 66 72 66 5 0 5 -18
2 -40 -6 -37 10 -125 25 -134 3 -2 5 19 5 47 -1 49 21 117 37 117 27 0 115
-171 125 -241 6 -46 5 -47 -23 -53 -15 -3 -49 -8 -75 -10 l-47 -5 1 40 c0 40
-17 72 -36 66 -6 -2 -17 2 -24 10 -11 11 -20 9 -53 -7 -21 -11 -39 -26 -40
-33 0 -6 -2 -25 -3 -40 -1 -16 3 -31 9 -35 5 -4 -3 -10 -20 -14 -37 -9 264 -2
320 8 140 23 291 77 378 136 117 80 222 214 242 313 4 21 0 16 -13 -15 -68
-166 -229 -302 -425 -360 l-27 -9 7 72 c12 108 7 243 -11 326 -9 41 -14 76
-12 78 2 2 15 1 30 -3 37 -9 120 -95 150 -156 30 -60 32 -53 10 42 -8 37 -30
93 -49 124 -21 35 -29 56 -21 56 24 0 97 -29 127 -51 28 -19 31 -41 6 -38 -34
4 -37 -2 -37 -71 l0 -70 35 0 c19 0 35 4 35 8 0 4 -12 8 -27 7 -24 0 -28 4
-31 33 -3 30 -1 32 30 33 18 1 25 3 16 6 -19 5 -25 43 -7 43 6 0 9 -7 5 -15
-3 -8 -1 -15 4 -15 6 0 9 15 8 33 -3 44 -75 119 -152 157 -58 29 -93 32 -123
8 -9 -7 -20 -1 -36 18 -28 32 -73 38 -155 19z m428 -225 c0 -11 -4 -20 -10
-20 -5 0 -10 9 -10 20 0 11 5 20 10 20 6 0 10 -9 10 -20z m-667 -405 c-3 -9
-8 -14 -10 -11 -3 3 -2 9 2 15 9 16 15 13 8 -4z m-6 -47 c-3 -8 -6 -5 -6 6 -1
11 2 17 5 13 3 -3 4 -12 1 -19z"/>
<path d="M1057 1243 c-11 -10 -8 -131 3 -138 5 -3 21 -3 35 1 24 6 25 10 25
75 l0 69 -28 0 c-16 0 -32 -3 -35 -7z m23 -25 c0 -12 -3 -18 -7 -14 -11 10
-12 36 -2 36 5 0 9 -10 9 -22z m30 -4 c0 -8 -4 -14 -10 -14 -5 0 -10 9 -10 21
0 11 5 17 10 14 6 -3 10 -13 10 -21z m0 -64 c0 -21 -6 -29 -24 -32 -23 -5 -25
-2 -24 32 0 33 3 36 24 32 18 -3 24 -11 24 -32z"/>
<path d="M1477 1043 c-4 -3 -7 -16 -6 -27 0 -19 1 -19 10 3 10 24 8 36 -4 24z"/>
<path d="M1062 960 c0 -14 2 -19 5 -12 2 6 2 18 0 25 -3 6 -5 1 -5 -13z"/>
<path d="M1645 938 c-11 -48 -56 -134 -107 -203 -48 -64 -146 -149 -243 -208
-75 -47 -65 -47 27 -2 86 43 181 118 231 184 36 46 85 146 93 186 2 11 6 32
10 48 3 15 3 27 1 27 -3 0 -9 -15 -12 -32z"/>
<path d="M1433 905 c-6 -14 -8 -27 -4 -30 7 -4 31 36 31 50 0 14 -17 1 -27
-20z"/>
<path d="M1372 805 c-12 -15 -19 -31 -16 -37 7 -11 47 39 42 54 -2 6 -14 -1
-26 -17z"/>
<path d="M1280 704 c-13 -13 -20 -24 -15 -24 15 0 55 30 55 41 0 15 -13 9 -40
-17z"/>
<path d="M1177 631 c-17 -11 -25 -21 -18 -25 13 -9 63 23 55 35 -7 11 -4 12
-37 -10z"/>
<path d="M1061 566 c-31 -17 -11 -30 23 -15 27 13 35 29 14 29 -7 -1 -24 -7
-37 -14z"/>
<path d="M946 516 c-16 -7 -24 -16 -18 -20 13 -8 62 10 62 24 0 12 -7 12 -44
-4z"/>
<path d="M828 476 c-16 -5 -28 -14 -28 -19 0 -8 32 -1 59 13 23 12 -2 17 -31
6z"/>
<path d="M703 443 c-34 -7 -28 -20 7 -15 17 2 30 8 30 13 0 5 -3 8 -7 8 -5 -1
-18 -4 -30 -6z"/>
<path d="M588 413 c7 -3 16 -2 19 1 4 3 -2 6 -13 5 -11 0 -14 -3 -6 -6z"/>
</g>
</svg>
